<svg xmlns="http://www.w3.org/2000/svg" viewBox="0 0 64 64" role="img" aria-label="Secure Handy Safe">
  <defs>
    <linearGradient id="bg" x1="0" y1="0" x2="1" y2="1">
      <stop offset="0%" stop-color="#0f172a" />
      <stop offset="100%" stop-color="#1e3a8a" />
    </linearGradient>
    <linearGradient id="accent" x1="0" y1="0" x2="1" y2="1">
      <stop offset="0%" stop-color="#22d3ee" />
      <stop offset="100%" stop-color="#60a5fa" />
    </linearGradient>
  </defs>
  <rect x="2" y="2" width="60" height="60" rx="14" fill="url(#bg)" />
  <path d="M32 14c-6.6 0-12 5.4-12 12v6h-2c-2.2 0-4 1.8-4 4v14c0 2.2 1.8 4 4 4h28c2.2 0 4-1.8 4-4V36c0-2.2-1.8-4-4-4h-2v-6c0-6.6-5.4-12-12-12zm-8 18v-6a8 8 0 1 1 16 0v6z" fill="url(#accent)" />
  <circle cx="32" cy="43" r="4.5" fill="#e2e8f0" />
</svg>
